<svg width="110" height="110" viewBox="0 0 110 110" fill="none" xmlns="http://www.w3.org/2000/svg">
<circle cx="55" cy="55" r="54.5" stroke="#E0E0E0"/>
<circle cx="55" cy="55" r="44.5" stroke="#4985FF"/>
<path d="M79.3326 35H49.3327C48.9645 35 48.666 35.2985 48.666 35.6667V45.6666H49.9993V36.3333H78.6659V72.9999C78.6724 73.3505 78.4019 73.6442 78.0519 73.6666C77.9946 73.6666 77.9373 73.6619 77.8799 73.6606C77.7619 73.6573 77.6439 73.6546 77.5279 73.6426C77.5179 73.6426 77.5086 73.6426 77.4986 73.6386C75.3213 73.4006 73.6014 71.6823 73.3613 69.5053C73.3613 69.4959 73.358 69.4859 73.3566 69.4766C73.3405 69.3182 73.3325 69.1591 73.3326 68.9999V67.6666C73.3326 67.2984 73.0341 66.9999 72.666 66.9999H49.9993V55H48.666V66.9999H43.3327C42.9645 66.9999 42.666 67.2984 42.666 67.6666V68.9999C42.6697 72.3121 45.3538 74.9963 48.666 74.9999H78.0659C79.1478 74.9716 80.0076 74.0821 79.9993 72.9999V35.6667C79.9993 35.2985 79.7008 35 79.3326 35ZM48.666 73.6666C46.0899 73.6637 44.0023 71.576 43.9993 68.9999V68.3333H71.9993V68.9999C72.0002 69.2198 72.0129 69.4394 72.0373 69.6579C72.0433 69.7159 72.0546 69.7719 72.0626 69.8293C72.0846 69.9906 72.1113 70.1513 72.1466 70.3093C72.1586 70.3646 72.174 70.4193 72.188 70.4746C72.2286 70.6353 72.2746 70.7933 72.328 70.9493C72.3433 70.9939 72.3593 71.0379 72.376 71.0826C72.4366 71.2479 72.5053 71.4093 72.5806 71.5686C72.5966 71.6013 72.6113 71.6353 72.6273 71.6653C72.7109 71.8342 72.8026 71.9983 72.9026 72.1579C72.916 72.1793 72.928 72.2013 72.9413 72.2246C73.05 72.3948 73.1673 72.5595 73.2926 72.7179L73.314 72.7466C73.4595 72.9293 73.6153 73.1036 73.7806 73.2686C73.9242 73.4108 74.073 73.5442 74.2273 73.6686L48.666 73.6666Z" fill="#4985FF"/>
<path d="M62 53.6667C62.1768 53.6667 62.3463 53.5963 62.4713 53.4713L65.1379 50.8047C65.3982 50.5443 65.3982 50.1223 65.1379 49.862L62.4713 47.1953C62.3463 47.0703 62.1768 47 62 47H43.3333C41.4924 47 40 48.4924 40 50.3333C40 52.1742 41.4924 53.6667 43.3333 53.6667H62ZM61.828 48.4373L63.7239 50.3333L61.828 52.2293L61.354 50.3333L61.828 48.4373ZM45.3333 48.3333H60.48L60.1466 49.6667H46.6667V51H60.1466L60.48 52.3333H45.3333V48.3333ZM41.3333 50.3333C41.3333 49.2287 42.2287 48.3333 43.3333 48.3333H44V52.3333H43.3333C42.2287 52.3333 41.3333 51.4379 41.3333 50.3333Z" fill="#4985FF"/>
<path d="M55.3325 63.6666H75.3325C75.7007 63.6666 75.9992 63.3681 75.9992 62.9999V43C75.9991 42.6318 75.7006 42.3334 75.3323 42.3335C75.1556 42.3335 74.9862 42.4037 74.8612 42.5287L54.8612 62.5286C54.6009 62.789 54.601 63.2111 54.8614 63.4714C54.9864 63.5964 55.1558 63.6666 55.3325 63.6666ZM74.6658 44.6093V46.3333H73.3325V47.6666H74.6658V49H73.3325V50.3333H74.6658V51.6666H73.3325V53H74.6658V54.3333H73.3325V55.6666H74.6658V57H73.3325V58.3333H74.6658V59.6666H73.3325V60.9999H74.6658V62.3333H73.3325V60.9999H71.9992V62.3333H70.6658V60.9999H69.3325V62.3333H67.9992V60.9999H66.6659V62.3333H65.3325V60.9999H63.9992V62.3333H62.6659V60.9999H61.3325V62.3333H59.9992V60.9999H58.6659V62.3333H56.9419L74.6658 44.6093Z" fill="#4985FF"/>
<path d="M64.9907 59.6667H71.3341C71.7022 59.6667 72.0007 59.3682 72.0007 59V52.6567C72.0007 52.2886 71.7022 51.9902 71.3339 51.9902C71.1572 51.9902 70.9877 52.0605 70.8627 52.1854L64.5194 58.5287C64.2591 58.7891 64.2592 59.2112 64.5196 59.4715C64.6446 59.5965 64.814 59.6667 64.9907 59.6667ZM70.6674 54.2667V58.3334H66.6007L70.6674 54.2667Z" fill="#4985FF"/>
<path d="M70.6673 39H57.334V40.3333H70.6673V39Z" fill="#4985FF"/>
<path d="M72.6673 41.6665H55.334V42.9998H72.6673V41.6665Z" fill="#4985FF"/>
<path d="M55.334 55.6665H51.334V56.9998H55.334V55.6665Z" fill="#4985FF"/>
<path d="M54.0006 58.3335H51.334V59.6668H54.0006V58.3335Z" fill="#4985FF"/>
</svg>
